# xmcd
#
# Track frame offsets: 
#        150
#        15695
#        34924
#        50655
#        62954
#        79105
#        93514
#        110835
#        123115
#        139420
#        156854
#        169997
#
# Disc length: 2508 seconds
#
# Revision: 0
# Processed by: cddbd v1.5.2PL0 Copyright (c) Steve Scherf et al.
# Submitted via: ExactAudioCopy v1.0b2
#
DISCID=aa09ca0c
DTITLE=Ronnie Milsap - Country Again
DYEAR=2011
DGENRE=Country
TTITLE0=A Better Word For Love
TTITLE1=Country Again
TTITLE2=Cry Cry Darling
TTITLE3=You're The Reason I'm Living
TTITLE4=Almost Mine
TTITLE5=Oh Linda
TTITLE6=Even Fools Get Lucky
TTITLE7=For A Minute There
TTITLE8=Fireworks
TTITLE9=On My Own
TTITLE10=Trapped In An Old Country Song
TTITLE11=If You Don't Want Me To Freeze?
EXTD=
EXTT0=
EXTT1=
EXTT2=
EXTT3=
EXTT4=
EXTT5=
EXTT6=
EXTT7=
EXTT8=
EXTT9=
EXTT10=
EXTT11=
PLAYORDER=
